<svg width="40" height="33" viewBox="0 0 40 33" fill="none" xmlns="http://www.w3.org/2000/svg">
<g clip-path="url(#clip0)">
<path d="M39 13.0793H35V9.05488C35 8.50152 34.55 8.04878 34 8.04878H32C31.45 8.04878 31 8.50152 31 9.05488V13.0793H27C26.45 13.0793 26 13.532 26 14.0854V16.0976C26 16.6509 26.45 17.1037 27 17.1037H31V21.128C31 21.6814 31.45 22.1341 32 22.1341H34C34.55 22.1341 35 21.6814 35 21.128V17.1037H39C39.55 17.1037 40 16.6509 40 16.0976V14.0854C40 13.532 39.55 13.0793 39 13.0793ZM14 16.0976C18.4188 16.0976 22 12.4945 22 8.04878C22 3.60309 18.4188 0 14 0C9.58125 0 6 3.60309 6 8.04878C6 12.4945 9.58125 16.0976 14 16.0976ZM19.6 18.1098H18.5562C17.1687 18.7511 15.625 19.1159 14 19.1159C12.375 19.1159 10.8375 18.7511 9.44375 18.1098H8.4C3.7625 18.1098 0 21.8952 0 26.561V29.1768C0 30.8432 1.34375 32.1951 3 32.1951H25C26.6562 32.1951 28 30.8432 28 29.1768V26.561C28 21.8952 24.2375 18.1098 19.6 18.1098Z" fill="url(#paint0_linear)"/>
</g>
<defs>
<linearGradient id="paint0_linear" x1="40" y1="15.7551" x2="-9.65986e-07" y2="15.7551" gradientUnits="userSpaceOnUse">
<stop stop-color="#222AD3"/>
<stop offset="0.510417" stop-color="#EE3278"/>
<stop offset="1" stop-color="#FF8710"/>
</linearGradient>
<clipPath id="clip0">
<rect width="40" height="32.1951" fill="white"/>
</clipPath>
</defs>
</svg>
